<?xml version="1.0" standalone="no"?>
<!DOCTYPE svg PUBLIC "-//W3C//DTD SVG 20010904//EN"
 "http://www.w3.org/TR/2001/REC-SVG-20010904/DTD/svg10.dtd">
<svg version="1.0" xmlns="http://www.w3.org/2000/svg"
 width="225.000000pt" height="225.000000pt" viewBox="0 0 225.000000 225.000000"
 preserveAspectRatio="xMidYMid meet">
<metadata>
Created by potrace 1.14, written by Peter Selinger 2001-2017
</metadata>
<g transform="translate(0.000000,225.000000) scale(0.100000,-0.100000)"
fill="#000000" stroke="none">
<path d="M758 1835 c-93 -34 -156 -116 -165 -213 -3 -36 -1 -52 5 -44 12 17
225 15 215 -2 -5 -7 -2 -7 8 0 9 8 114 15 314 20 165 4 292 10 282 12 -17 3
-18 14 -16 101 2 53 0 102 -4 108 -4 7 4 15 20 21 20 7 -67 10 -297 11 -251 0
-334 -4 -362 -14z"/>
<path d="M850 1243 c0 -5 -3 -63 -6 -130 l-6 -123 154 1 c153 1 226 9 183 20
-19 5 -20 13 -17 117 3 105 4 111 25 115 12 2 -58 5 -155 6 -98 0 -178 -2
-178 -6z"/>
<path d="M831 880 c-2 -19 -5 -30 -7 -24 -3 8 -17 6 -44 -7 -21 -11 -44 -19
-50 -19 -5 0 -10 -3 -10 -8 0 -7 -29 -25 -62 -38 -9 -3 -19 -13 -21 -23 -3
-10 -5 -6 -6 9 -2 24 -2 24 -13 5 -12 -19 -13 -18 -20 10 -4 17 -6 -16 -4 -75
1 -78 7 -114 20 -140 25 -48 73 -98 121 -123 39 -22 50 -22 504 -25 l464 -3
-7 42 c-9 57 -38 110 -82 149 -73 63 -78 64 -421 70 -277 4 -314 7 -329 22
-13 13 -19 43 -24 115 -4 54 -8 82 -9 63z"/>
</g>
</svg>
